<?xml version="1.0" standalone="no"?>
<!DOCTYPE svg PUBLIC "-//W3C//DTD SVG 20010904//EN"
 "http://www.w3.org/TR/2001/REC-SVG-20010904/DTD/svg10.dtd">
<svg version="1.0" xmlns="http://www.w3.org/2000/svg"
 width="307.000000pt" height="308.000000pt" viewBox="0 0 307.000000 308.000000"
 preserveAspectRatio="xMidYMid meet">

<g transform="translate(0.000000,308.000000) scale(0.100000,-0.100000)"
fill="#ffffff" stroke="none">
<path d="M1505 2970 c-11 -4 -27 -16 -37 -26 -13 -15 -777 -1316 -1083 -1844
-40 -69 -89 -152 -109 -185 -41 -68 -46 -111 -17 -146 l19 -24 1014 -5 c557
-3 1120 -3 1251 0 236 5 239 5 258 29 10 13 19 36 19 53 0 20 -178 334 -606
1066 -333 570 -615 1047 -627 1058 -27 27 -56 35 -82 24z m57 -47 c17 -20 78
-127 78 -137 0 -3 -6 -6 -13 -6 -7 0 -25 -12 -39 -27 -14 -16 -229 -316 -478
-668 -248 -352 -466 -653 -483 -670 -27 -27 -29 -28 -16 -5 9 14 208 356 444
760 236 404 435 743 443 753 8 9 23 17 32 17 9 0 24 -8 32 -17z m140 -248 c21
-39 38 -73 38 -77 0 -4 -10 -8 -22 -10 -15 -2 -136 -127 -351 -363 -342 -375
-496 -540 -479 -515 47 73 727 1027 736 1032 24 16 42 0 78 -67z m53 -125 c10
-16 575 -1728 575 -1742 0 -8 -25 -9 -87 -4 -48 3 -88 8 -90 10 -2 2 -77 340
-167 752 -90 412 -167 757 -171 767 -10 25 -51 32 -78 14 -17 -11 -889 -786
-1031 -916 -95 -87 48 78 500 574 325 357 512 555 524 555 10 0 22 -5 25 -10z
m204 -973 c89 -406 161 -744 161 -751 0 -14 -114 -6 -204 14 -107 24 -1302
414 -1313 428 -10 13 -10 19 0 33 15 22 1128 1013 1153 1027 14 8 22 8 31 -1
6 -7 84 -344 172 -750z m290 -55 c289 -612 330 -705 320 -723 -11 -21 -16 -21
-103 -15 -50 4 -94 10 -97 14 -5 6 -483 1454 -496 1502 -10 36 65 -119 376
-778z m105 51 c334 -572 427 -738 424 -760 -3 -28 -3 -28 -89 -31 l-86 -3 4
25 c4 18 -89 224 -336 746 -307 651 -364 776 -349 760 3 -3 197 -334 432 -737z
m-1765 -327 c9 -8 228 -83 488 -167 260 -84 471 -154 469 -156 -3 -4 -1049
217 -1054 222 -4 4 71 114 77 115 3 0 12 -6 20 -14z m511 -261 c327 -70 597
-129 600 -132 3 -3 -20 -2 -50 1 -30 4 -317 29 -637 56 -321 28 -589 53 -597
56 -28 11 -23 42 13 98 28 44 41 55 56 52 11 -3 288 -62 615 -131z m55 -120
c413 -36 768 -69 790 -74 24 -5 -292 -9 -808 -10 l-848 -1 -8 23 c-7 17 -1 37
26 87 51 93 51 93 76 64 22 -24 24 -24 772 -89z"/>
<path d="M2180 2246 c0 -7 102 -170 118 -188 13 -16 34 -18 154 -18 79 0 138
-4 138 -9 0 -6 -25 -67 -55 -138 l-55 -128 42 -60 c23 -33 53 -77 67 -97 15
-21 28 -37 31 -38 5 0 185 419 192 447 2 6 -28 61 -66 122 l-70 111 -248 0
c-136 0 -248 -2 -248 -4z"/>
<path d="M313 2095 l-71 -114 100 -236 100 -235 73 102 72 102 -37 90 c-21 50
-48 113 -59 139 -12 27 -21 51 -21 53 0 2 67 4 149 4 l149 0 56 88 c86 136
107 122 -185 122 l-254 0 -72 -115z"/>
<path d="M1226 601 c-49 -3 -91 -10 -92 -16 -1 -5 59 -98 135 -205 l137 -195
134 0 135 0 127 200 c69 110 127 206 127 213 1 9 -29 12 -117 12 l-117 0 -75
-120 c-41 -66 -78 -120 -81 -120 -4 0 -44 54 -90 120 -72 103 -87 120 -109
118 -14 -1 -65 -4 -114 -7z"/>
</g>
</svg>
